<mxfile host="app.diagrams.net" modified="2023-05-23T08:58:34.343Z" agent="Mozilla/5.0 (Windows NT 10.0; Win64; x64) AppleWebKit/537.36 (KHTML, like Gecko) Chrome/113.0.0.0 Safari/537.36" etag="nwRA7dADliwbuZ3m5zIN" version="21.3.2" type="device">
  <diagram name="페이지-1" id="XMw0-NRLRgTwDYn4s910">
    <mxGraphModel dx="1436" dy="884" grid="1" gridSize="10" guides="1" tooltips="1" connect="1" arrows="1" fold="1" page="1" pageScale="1" pageWidth="827" pageHeight="1169" math="0" shadow="0">
      <root>
        <mxCell id="0" />
        <mxCell id="1" parent="0" />
        <mxCell id="Z_sjvJzbGkH4iaudYOMP-10" value="" style="rounded=0;whiteSpace=wrap;html=1;glass=0;labelBorderColor=#f00f0f;strokeColor=default;strokeWidth=2;" parent="1" vertex="1">
          <mxGeometry x="100" y="165" width="640" height="805" as="geometry" />
        </mxCell>
        <mxCell id="Z_sjvJzbGkH4iaudYOMP-4" value="User&lt;br&gt;(직원)" style="shape=umlActor;verticalLabelPosition=bottom;verticalAlign=top;html=1;outlineConnect=0;" parent="1" vertex="1">
          <mxGeometry x="40" y="420" width="40" height="80" as="geometry" />
        </mxCell>
        <mxCell id="Z_sjvJzbGkH4iaudYOMP-6" value="Company&lt;br&gt;(관리자)" style="shape=umlActor;verticalLabelPosition=bottom;verticalAlign=top;html=1;outlineConnect=0;" parent="1" vertex="1">
          <mxGeometry x="760" y="420" width="40" height="80" as="geometry" />
        </mxCell>
        <mxCell id="Z_sjvJzbGkH4iaudYOMP-14" value="캘린더 보기" style="ellipse;whiteSpace=wrap;html=1;" parent="1" vertex="1">
          <mxGeometry x="200" y="360" width="100" height="60" as="geometry" />
        </mxCell>
        <mxCell id="Z_sjvJzbGkH4iaudYOMP-21" value="월별보기" style="ellipse;whiteSpace=wrap;html=1;" parent="1" vertex="1">
          <mxGeometry x="320" y="310" width="60" height="40" as="geometry" />
        </mxCell>
        <mxCell id="Z_sjvJzbGkH4iaudYOMP-23" value="주별보기" style="ellipse;whiteSpace=wrap;html=1;" parent="1" vertex="1">
          <mxGeometry x="320" y="360" width="60" height="40" as="geometry" />
        </mxCell>
        <mxCell id="Z_sjvJzbGkH4iaudYOMP-24" value="일별보기" style="ellipse;whiteSpace=wrap;html=1;" parent="1" vertex="1">
          <mxGeometry x="320" y="410" width="60" height="40" as="geometry" />
        </mxCell>
        <mxCell id="Z_sjvJzbGkH4iaudYOMP-31" value="" style="endArrow=none;html=1;rounded=0;exitX=0.5;exitY=0;exitDx=0;exitDy=0;entryX=0;entryY=0.5;entryDx=0;entryDy=0;" parent="1" source="Z_sjvJzbGkH4iaudYOMP-14" target="Z_sjvJzbGkH4iaudYOMP-21" edge="1">
          <mxGeometry width="50" height="50" relative="1" as="geometry">
            <mxPoint x="300" y="360" as="sourcePoint" />
            <mxPoint x="350" y="310" as="targetPoint" />
          </mxGeometry>
        </mxCell>
        <mxCell id="Z_sjvJzbGkH4iaudYOMP-32" value="" style="endArrow=none;html=1;rounded=0;exitX=1.003;exitY=0.372;exitDx=0;exitDy=0;entryX=0;entryY=0.5;entryDx=0;entryDy=0;exitPerimeter=0;" parent="1" source="Z_sjvJzbGkH4iaudYOMP-14" edge="1" target="Z_sjvJzbGkH4iaudYOMP-23">
          <mxGeometry width="50" height="50" relative="1" as="geometry">
            <mxPoint x="300" y="440" as="sourcePoint" />
            <mxPoint x="320" y="380" as="targetPoint" />
          </mxGeometry>
        </mxCell>
        <mxCell id="Z_sjvJzbGkH4iaudYOMP-33" value="" style="endArrow=none;html=1;rounded=0;exitX=1;exitY=1;exitDx=0;exitDy=0;entryX=0;entryY=0.5;entryDx=0;entryDy=0;" parent="1" source="Z_sjvJzbGkH4iaudYOMP-14" target="Z_sjvJzbGkH4iaudYOMP-24" edge="1">
          <mxGeometry width="50" height="50" relative="1" as="geometry">
            <mxPoint x="300" y="490" as="sourcePoint" />
            <mxPoint x="350" y="440" as="targetPoint" />
          </mxGeometry>
        </mxCell>
        <mxCell id="Z_sjvJzbGkH4iaudYOMP-34" value="일정관리" style="ellipse;whiteSpace=wrap;html=1;" parent="1" vertex="1">
          <mxGeometry x="190" y="600" width="100" height="60" as="geometry" />
        </mxCell>
        <mxCell id="Z_sjvJzbGkH4iaudYOMP-39" value="일정추가" style="ellipse;whiteSpace=wrap;html=1;" parent="1" vertex="1">
          <mxGeometry x="317.5" y="560" width="60" height="40" as="geometry" />
        </mxCell>
        <mxCell id="Z_sjvJzbGkH4iaudYOMP-40" value="일정수정" style="ellipse;whiteSpace=wrap;html=1;" parent="1" vertex="1">
          <mxGeometry x="317.5" y="610" width="60" height="40" as="geometry" />
        </mxCell>
        <mxCell id="Z_sjvJzbGkH4iaudYOMP-41" value="일정삭제" style="ellipse;whiteSpace=wrap;html=1;" parent="1" vertex="1">
          <mxGeometry x="317.5" y="660" width="60" height="40" as="geometry" />
        </mxCell>
        <mxCell id="Z_sjvJzbGkH4iaudYOMP-42" value="" style="endArrow=none;html=1;rounded=0;exitX=0.67;exitY=0.002;exitDx=0;exitDy=0;entryX=0;entryY=0.5;entryDx=0;entryDy=0;exitPerimeter=0;" parent="1" source="Z_sjvJzbGkH4iaudYOMP-34" target="Z_sjvJzbGkH4iaudYOMP-39" edge="1">
          <mxGeometry width="50" height="50" relative="1" as="geometry">
            <mxPoint x="280" y="600" as="sourcePoint" />
            <mxPoint x="350" y="580" as="targetPoint" />
          </mxGeometry>
        </mxCell>
        <mxCell id="Z_sjvJzbGkH4iaudYOMP-44" value="" style="endArrow=none;html=1;rounded=0;exitX=0.5;exitY=1;exitDx=0;exitDy=0;entryX=0;entryY=0.5;entryDx=0;entryDy=0;" parent="1" target="Z_sjvJzbGkH4iaudYOMP-40" edge="1">
          <mxGeometry width="50" height="50" relative="1" as="geometry">
            <mxPoint x="290" y="630" as="sourcePoint" />
            <mxPoint x="360" y="650" as="targetPoint" />
          </mxGeometry>
        </mxCell>
        <mxCell id="Z_sjvJzbGkH4iaudYOMP-46" value="일정카테고리화" style="ellipse;whiteSpace=wrap;html=1;" parent="1" vertex="1">
          <mxGeometry x="390" y="580" width="70" height="50" as="geometry" />
        </mxCell>
        <mxCell id="Z_sjvJzbGkH4iaudYOMP-47" value="" style="endArrow=none;html=1;rounded=0;exitX=0.994;exitY=0.384;exitDx=0;exitDy=0;exitPerimeter=0;entryX=0;entryY=0;entryDx=0;entryDy=0;" parent="1" source="Z_sjvJzbGkH4iaudYOMP-39" edge="1" target="Z_sjvJzbGkH4iaudYOMP-46">
          <mxGeometry width="50" height="50" relative="1" as="geometry">
            <mxPoint x="414" y="579.58" as="sourcePoint" />
            <mxPoint x="430" y="587" as="targetPoint" />
          </mxGeometry>
        </mxCell>
        <mxCell id="Z_sjvJzbGkH4iaudYOMP-49" value="" style="endArrow=none;html=1;rounded=0;exitX=1;exitY=0.5;exitDx=0;exitDy=0;entryX=0;entryY=1;entryDx=0;entryDy=0;" parent="1" source="Z_sjvJzbGkH4iaudYOMP-40" target="Z_sjvJzbGkH4iaudYOMP-46" edge="1">
          <mxGeometry width="50" height="50" relative="1" as="geometry">
            <mxPoint x="424" y="561.58" as="sourcePoint" />
            <mxPoint x="450" y="577" as="targetPoint" />
          </mxGeometry>
        </mxCell>
        <mxCell id="Z_sjvJzbGkH4iaudYOMP-50" value="일정검색" style="ellipse;whiteSpace=wrap;html=1;" parent="1" vertex="1">
          <mxGeometry x="317.5" y="715" width="60" height="40" as="geometry" />
        </mxCell>
        <mxCell id="Z_sjvJzbGkH4iaudYOMP-52" value="" style="endArrow=none;html=1;rounded=0;exitX=0.5;exitY=1;exitDx=0;exitDy=0;entryX=0;entryY=0;entryDx=0;entryDy=0;" parent="1" source="Z_sjvJzbGkH4iaudYOMP-34" target="Z_sjvJzbGkH4iaudYOMP-50" edge="1">
          <mxGeometry width="50" height="50" relative="1" as="geometry">
            <mxPoint x="300" y="785" as="sourcePoint" />
            <mxPoint x="350" y="735" as="targetPoint" />
          </mxGeometry>
        </mxCell>
        <mxCell id="Z_sjvJzbGkH4iaudYOMP-54" value="" style="endArrow=classic;html=1;rounded=0;entryX=0;entryY=0.5;entryDx=0;entryDy=0;" parent="1" target="Z_sjvJzbGkH4iaudYOMP-34" edge="1" source="Z_sjvJzbGkH4iaudYOMP-4">
          <mxGeometry width="50" height="50" relative="1" as="geometry">
            <mxPoint x="90" y="470" as="sourcePoint" />
            <mxPoint x="220" y="580" as="targetPoint" />
          </mxGeometry>
        </mxCell>
        <mxCell id="Z_sjvJzbGkH4iaudYOMP-55" value="Calendar&lt;br&gt;(System)" style="rounded=1;whiteSpace=wrap;html=1;fontSize=17;" parent="1" vertex="1">
          <mxGeometry x="365" y="100" width="125" height="60" as="geometry" />
        </mxCell>
        <mxCell id="Z_sjvJzbGkH4iaudYOMP-56" value="유저 정보" style="ellipse;whiteSpace=wrap;html=1;" parent="1" vertex="1">
          <mxGeometry x="200" y="260" width="100" height="60" as="geometry" />
        </mxCell>
        <mxCell id="Z_sjvJzbGkH4iaudYOMP-57" value="" style="endArrow=classic;html=1;rounded=0;entryX=0.026;entryY=0.678;entryDx=0;entryDy=0;entryPerimeter=0;" parent="1" target="Z_sjvJzbGkH4iaudYOMP-56" edge="1">
          <mxGeometry width="50" height="50" relative="1" as="geometry">
            <mxPoint x="80" y="410" as="sourcePoint" />
            <mxPoint x="220" y="300" as="targetPoint" />
          </mxGeometry>
        </mxCell>
        <mxCell id="Z_sjvJzbGkH4iaudYOMP-58" value="로그인" style="ellipse;whiteSpace=wrap;html=1;" parent="1" vertex="1">
          <mxGeometry x="190" y="190" width="60" height="40" as="geometry" />
        </mxCell>
        <mxCell id="Z_sjvJzbGkH4iaudYOMP-60" value="" style="endArrow=none;html=1;rounded=0;entryX=0.5;entryY=1;entryDx=0;entryDy=0;exitX=0;exitY=0;exitDx=0;exitDy=0;" parent="1" source="Z_sjvJzbGkH4iaudYOMP-56" target="Z_sjvJzbGkH4iaudYOMP-58" edge="1">
          <mxGeometry width="50" height="50" relative="1" as="geometry">
            <mxPoint x="420" y="499" as="sourcePoint" />
            <mxPoint x="440" y="512" as="targetPoint" />
          </mxGeometry>
        </mxCell>
        <mxCell id="Z_sjvJzbGkH4iaudYOMP-62" value="&lt;span style=&quot;font-size: 10px;&quot;&gt;계정발급&lt;br&gt;&lt;/span&gt;" style="ellipse;whiteSpace=wrap;html=1;" parent="1" vertex="1">
          <mxGeometry x="365" y="190" width="60" height="40" as="geometry" />
        </mxCell>
        <mxCell id="Z_sjvJzbGkH4iaudYOMP-65" value="" style="endArrow=none;html=1;rounded=0;entryX=0;entryY=1;entryDx=0;entryDy=0;exitX=1;exitY=0;exitDx=0;exitDy=0;" parent="1" source="Z_sjvJzbGkH4iaudYOMP-56" target="Z_sjvJzbGkH4iaudYOMP-62" edge="1">
          <mxGeometry width="50" height="50" relative="1" as="geometry">
            <mxPoint x="290" y="270" as="sourcePoint" />
            <mxPoint x="300" y="240" as="targetPoint" />
          </mxGeometry>
        </mxCell>
        <mxCell id="Z_sjvJzbGkH4iaudYOMP-66" value="" style="endArrow=classic;html=1;rounded=0;entryX=0.014;entryY=0.594;entryDx=0;entryDy=0;entryPerimeter=0;" parent="1" target="Z_sjvJzbGkH4iaudYOMP-14" edge="1" source="Z_sjvJzbGkH4iaudYOMP-4">
          <mxGeometry width="50" height="50" relative="1" as="geometry">
            <mxPoint x="90" y="430" as="sourcePoint" />
            <mxPoint x="220" y="428" as="targetPoint" />
          </mxGeometry>
        </mxCell>
        <mxCell id="Z_sjvJzbGkH4iaudYOMP-67" value="로그아웃" style="ellipse;whiteSpace=wrap;html=1;" parent="1" vertex="1">
          <mxGeometry x="260" y="190" width="60" height="40" as="geometry" />
        </mxCell>
        <mxCell id="Z_sjvJzbGkH4iaudYOMP-69" value="" style="endArrow=none;html=1;rounded=0;exitX=0.5;exitY=1;exitDx=0;exitDy=0;entryX=0.5;entryY=0;entryDx=0;entryDy=0;" parent="1" source="Z_sjvJzbGkH4iaudYOMP-67" target="Z_sjvJzbGkH4iaudYOMP-56" edge="1">
          <mxGeometry width="50" height="50" relative="1" as="geometry">
            <mxPoint x="439" y="501" as="sourcePoint" />
            <mxPoint x="459" y="514" as="targetPoint" />
          </mxGeometry>
        </mxCell>
        <mxCell id="Z_sjvJzbGkH4iaudYOMP-70" value="계정관리" style="ellipse;whiteSpace=wrap;html=1;" parent="1" vertex="1">
          <mxGeometry x="540" y="260" width="100" height="60" as="geometry" />
        </mxCell>
        <mxCell id="Z_sjvJzbGkH4iaudYOMP-72" value="&lt;span style=&quot;font-size: 10px;&quot;&gt;계정삭제&lt;/span&gt;" style="ellipse;whiteSpace=wrap;html=1;" parent="1" vertex="1">
          <mxGeometry x="580" y="200" width="60" height="40" as="geometry" />
        </mxCell>
        <mxCell id="Z_sjvJzbGkH4iaudYOMP-73" value="&lt;span style=&quot;font-size: 10px;&quot;&gt;계정수정&lt;br&gt;&lt;/span&gt;" style="ellipse;whiteSpace=wrap;html=1;" parent="1" vertex="1">
          <mxGeometry x="500" y="200" width="60" height="40" as="geometry" />
        </mxCell>
        <mxCell id="Z_sjvJzbGkH4iaudYOMP-74" value="" style="endArrow=none;html=1;rounded=0;exitX=0.637;exitY=0.048;exitDx=0;exitDy=0;exitPerimeter=0;" parent="1" source="Z_sjvJzbGkH4iaudYOMP-70" target="Z_sjvJzbGkH4iaudYOMP-72" edge="1">
          <mxGeometry width="50" height="50" relative="1" as="geometry">
            <mxPoint x="470" y="450" as="sourcePoint" />
            <mxPoint x="520" y="400" as="targetPoint" />
          </mxGeometry>
        </mxCell>
        <mxCell id="Z_sjvJzbGkH4iaudYOMP-75" value="" style="endArrow=none;html=1;rounded=0;exitX=0;exitY=0;exitDx=0;exitDy=0;entryX=0.5;entryY=1;entryDx=0;entryDy=0;" parent="1" source="Z_sjvJzbGkH4iaudYOMP-70" target="Z_sjvJzbGkH4iaudYOMP-73" edge="1">
          <mxGeometry width="50" height="50" relative="1" as="geometry">
            <mxPoint x="499" y="275" as="sourcePoint" />
            <mxPoint x="504" y="255" as="targetPoint" />
          </mxGeometry>
        </mxCell>
        <mxCell id="Z_sjvJzbGkH4iaudYOMP-76" value="" style="endArrow=none;html=1;rounded=0;exitX=0;exitY=0.5;exitDx=0;exitDy=0;entryX=1;entryY=1;entryDx=0;entryDy=0;" parent="1" source="Z_sjvJzbGkH4iaudYOMP-70" target="Z_sjvJzbGkH4iaudYOMP-62" edge="1">
          <mxGeometry width="50" height="50" relative="1" as="geometry">
            <mxPoint x="469" y="289" as="sourcePoint" />
            <mxPoint x="454" y="260" as="targetPoint" />
          </mxGeometry>
        </mxCell>
        <mxCell id="Z_sjvJzbGkH4iaudYOMP-77" value="휴가관리" style="ellipse;whiteSpace=wrap;html=1;" parent="1" vertex="1">
          <mxGeometry x="540" y="525" width="100" height="60" as="geometry" />
        </mxCell>
        <mxCell id="Z_sjvJzbGkH4iaudYOMP-78" value="" style="endArrow=classic;html=1;rounded=0;entryX=1;entryY=0.5;entryDx=0;entryDy=0;" parent="1" target="Z_sjvJzbGkH4iaudYOMP-77" edge="1" source="Z_sjvJzbGkH4iaudYOMP-6">
          <mxGeometry width="50" height="50" relative="1" as="geometry">
            <mxPoint x="759.7" y="520" as="sourcePoint" />
            <mxPoint x="599.7" y="380" as="targetPoint" />
          </mxGeometry>
        </mxCell>
        <mxCell id="Z_sjvJzbGkH4iaudYOMP-86" value="일정권한설정" style="ellipse;whiteSpace=wrap;html=1;" parent="1" vertex="1">
          <mxGeometry x="317.5" y="770" width="60" height="40" as="geometry" />
        </mxCell>
        <mxCell id="Z_sjvJzbGkH4iaudYOMP-93" value="" style="endArrow=none;html=1;rounded=0;entryX=0;entryY=1;entryDx=0;entryDy=0;exitX=0;exitY=0.5;exitDx=0;exitDy=0;" parent="1" source="Z_sjvJzbGkH4iaudYOMP-86" target="Z_sjvJzbGkH4iaudYOMP-34" edge="1">
          <mxGeometry width="50" height="50" relative="1" as="geometry">
            <mxPoint x="210" y="740" as="sourcePoint" />
            <mxPoint x="260" y="690" as="targetPoint" />
          </mxGeometry>
        </mxCell>
        <mxCell id="Z_sjvJzbGkH4iaudYOMP-95" value="휴가처리" style="ellipse;whiteSpace=wrap;html=1;" parent="1" vertex="1">
          <mxGeometry x="397.5" y="520" width="60" height="40" as="geometry" />
        </mxCell>
        <mxCell id="Z_sjvJzbGkH4iaudYOMP-97" value="" style="endArrow=none;html=1;rounded=0;exitX=0;exitY=0.5;exitDx=0;exitDy=0;entryX=1;entryY=0.5;entryDx=0;entryDy=0;" parent="1" source="Z_sjvJzbGkH4iaudYOMP-77" target="Z_sjvJzbGkH4iaudYOMP-95" edge="1">
          <mxGeometry width="50" height="50" relative="1" as="geometry">
            <mxPoint x="604.7" y="618" as="sourcePoint" />
            <mxPoint x="560.7" y="600" as="targetPoint" />
          </mxGeometry>
        </mxCell>
        <mxCell id="Z_sjvJzbGkH4iaudYOMP-98" value="휴가신청" style="ellipse;whiteSpace=wrap;html=1;" parent="1" vertex="1">
          <mxGeometry x="190" y="480" width="100" height="60" as="geometry" />
        </mxCell>
        <mxCell id="Z_sjvJzbGkH4iaudYOMP-101" value="" style="endArrow=classic;html=1;rounded=0;entryX=0.014;entryY=0.4;entryDx=0;entryDy=0;entryPerimeter=0;" parent="1" target="Z_sjvJzbGkH4iaudYOMP-98" edge="1" source="Z_sjvJzbGkH4iaudYOMP-4">
          <mxGeometry width="50" height="50" relative="1" as="geometry">
            <mxPoint x="90" y="450" as="sourcePoint" />
            <mxPoint x="220" y="510" as="targetPoint" />
          </mxGeometry>
        </mxCell>
        <mxCell id="Z_sjvJzbGkH4iaudYOMP-102" value="" style="endArrow=none;html=1;rounded=0;exitX=1;exitY=0.5;exitDx=0;exitDy=0;entryX=0.025;entryY=0.292;entryDx=0;entryDy=0;entryPerimeter=0;" parent="1" source="Z_sjvJzbGkH4iaudYOMP-98" target="Z_sjvJzbGkH4iaudYOMP-95" edge="1">
          <mxGeometry width="50" height="50" relative="1" as="geometry">
            <mxPoint x="289.99999999999994" y="567.3199999999999" as="sourcePoint" />
            <mxPoint x="479.7" y="490" as="targetPoint" />
          </mxGeometry>
        </mxCell>
        <mxCell id="Z_sjvJzbGkH4iaudYOMP-107" value="부서관리" style="ellipse;whiteSpace=wrap;html=1;" parent="1" vertex="1">
          <mxGeometry x="540" y="410" width="100" height="60" as="geometry" />
        </mxCell>
        <mxCell id="Z_sjvJzbGkH4iaudYOMP-110" value="" style="endArrow=classic;html=1;rounded=0;entryX=1;entryY=0.5;entryDx=0;entryDy=0;" parent="1" target="Z_sjvJzbGkH4iaudYOMP-107" edge="1" source="Z_sjvJzbGkH4iaudYOMP-6">
          <mxGeometry width="50" height="50" relative="1" as="geometry">
            <mxPoint x="750" y="450" as="sourcePoint" />
            <mxPoint x="660" y="270" as="targetPoint" />
          </mxGeometry>
        </mxCell>
        <mxCell id="Z_sjvJzbGkH4iaudYOMP-111" value="" style="endArrow=none;html=1;rounded=0;exitX=1;exitY=1;exitDx=0;exitDy=0;entryX=0;entryY=0.5;entryDx=0;entryDy=0;" parent="1" source="Z_sjvJzbGkH4iaudYOMP-34" target="Z_sjvJzbGkH4iaudYOMP-41" edge="1">
          <mxGeometry width="50" height="50" relative="1" as="geometry">
            <mxPoint x="300" y="640" as="sourcePoint" />
            <mxPoint x="327" y="640" as="targetPoint" />
          </mxGeometry>
        </mxCell>
        <mxCell id="DGaw78PKrGUKEOtXkO8Q-1" value="목록으로보기" style="ellipse;whiteSpace=wrap;html=1;" vertex="1" parent="1">
          <mxGeometry x="320" y="460" width="60" height="40" as="geometry" />
        </mxCell>
        <mxCell id="DGaw78PKrGUKEOtXkO8Q-2" value="" style="endArrow=none;html=1;rounded=0;exitX=0.5;exitY=1;exitDx=0;exitDy=0;entryX=0;entryY=0.5;entryDx=0;entryDy=0;" edge="1" parent="1" source="Z_sjvJzbGkH4iaudYOMP-14" target="DGaw78PKrGUKEOtXkO8Q-1">
          <mxGeometry width="50" height="50" relative="1" as="geometry">
            <mxPoint x="248" y="444" as="sourcePoint" />
            <mxPoint x="318" y="454" as="targetPoint" />
          </mxGeometry>
        </mxCell>
        <mxCell id="DGaw78PKrGUKEOtXkO8Q-8" value="연차관리" style="ellipse;whiteSpace=wrap;html=1;" vertex="1" parent="1">
          <mxGeometry x="510" y="600" width="60" height="40" as="geometry" />
        </mxCell>
        <mxCell id="DGaw78PKrGUKEOtXkO8Q-9" value="" style="endArrow=none;html=1;rounded=0;exitX=1;exitY=0;exitDx=0;exitDy=0;entryX=0.38;entryY=0.985;entryDx=0;entryDy=0;entryPerimeter=0;" edge="1" parent="1" source="DGaw78PKrGUKEOtXkO8Q-8" target="Z_sjvJzbGkH4iaudYOMP-77">
          <mxGeometry width="50" height="50" relative="1" as="geometry">
            <mxPoint x="417" y="421" as="sourcePoint" />
            <mxPoint x="452" y="440" as="targetPoint" />
          </mxGeometry>
        </mxCell>
        <mxCell id="DGaw78PKrGUKEOtXkO8Q-10" value="&lt;span style=&quot;font-size: 10px;&quot;&gt;부서추가&lt;/span&gt;" style="ellipse;whiteSpace=wrap;html=1;" vertex="1" parent="1">
          <mxGeometry x="460.00000000000006" y="370" width="60" height="40" as="geometry" />
        </mxCell>
        <mxCell id="DGaw78PKrGUKEOtXkO8Q-11" value="&lt;span style=&quot;font-size: 10px;&quot;&gt;부서수정&lt;/span&gt;" style="ellipse;whiteSpace=wrap;html=1;" vertex="1" parent="1">
          <mxGeometry x="460.00000000000006" y="420" width="60" height="40" as="geometry" />
        </mxCell>
        <mxCell id="DGaw78PKrGUKEOtXkO8Q-12" value="&lt;span style=&quot;font-size: 10px;&quot;&gt;부서인원추가&lt;/span&gt;" style="ellipse;whiteSpace=wrap;html=1;" vertex="1" parent="1">
          <mxGeometry x="460" y="470" width="60" height="40" as="geometry" />
        </mxCell>
        <mxCell id="DGaw78PKrGUKEOtXkO8Q-16" value="" style="endArrow=none;html=1;rounded=0;entryX=1;entryY=0.5;entryDx=0;entryDy=0;exitX=0.411;exitY=-0.002;exitDx=0;exitDy=0;exitPerimeter=0;" edge="1" parent="1" source="Z_sjvJzbGkH4iaudYOMP-107" target="DGaw78PKrGUKEOtXkO8Q-10">
          <mxGeometry width="50" height="50" relative="1" as="geometry">
            <mxPoint x="580" y="410" as="sourcePoint" />
            <mxPoint x="514.7" y="391" as="targetPoint" />
          </mxGeometry>
        </mxCell>
        <mxCell id="DGaw78PKrGUKEOtXkO8Q-17" value="" style="endArrow=none;html=1;rounded=0;entryX=1;entryY=0.5;entryDx=0;entryDy=0;exitX=0;exitY=0.5;exitDx=0;exitDy=0;" edge="1" parent="1" source="Z_sjvJzbGkH4iaudYOMP-107" target="DGaw78PKrGUKEOtXkO8Q-11">
          <mxGeometry width="50" height="50" relative="1" as="geometry">
            <mxPoint x="580" y="458" as="sourcePoint" />
            <mxPoint x="520" y="438" as="targetPoint" />
          </mxGeometry>
        </mxCell>
        <mxCell id="DGaw78PKrGUKEOtXkO8Q-18" value="" style="endArrow=none;html=1;rounded=0;entryX=1;entryY=0.5;entryDx=0;entryDy=0;exitX=0.405;exitY=1.002;exitDx=0;exitDy=0;exitPerimeter=0;" edge="1" parent="1" source="Z_sjvJzbGkH4iaudYOMP-107">
          <mxGeometry width="50" height="50" relative="1" as="geometry">
            <mxPoint x="540" y="489.8" as="sourcePoint" />
            <mxPoint x="520" y="489.8" as="targetPoint" />
          </mxGeometry>
        </mxCell>
        <mxCell id="DGaw78PKrGUKEOtXkO8Q-20" value="" style="endArrow=classic;html=1;rounded=0;entryX=0.962;entryY=0.695;entryDx=0;entryDy=0;entryPerimeter=0;" edge="1" parent="1" source="Z_sjvJzbGkH4iaudYOMP-6" target="Z_sjvJzbGkH4iaudYOMP-70">
          <mxGeometry width="50" height="50" relative="1" as="geometry">
            <mxPoint x="604.7" y="360" as="sourcePoint" />
            <mxPoint x="654.7" y="310" as="targetPoint" />
          </mxGeometry>
        </mxCell>
        <mxCell id="DGaw78PKrGUKEOtXkO8Q-21" value="일정파일 변환" style="ellipse;whiteSpace=wrap;html=1;" vertex="1" parent="1">
          <mxGeometry x="190" y="830" width="100" height="60" as="geometry" />
        </mxCell>
        <mxCell id="DGaw78PKrGUKEOtXkO8Q-22" value="" style="endArrow=classic;html=1;rounded=0;entryX=0.078;entryY=0.228;entryDx=0;entryDy=0;entryPerimeter=0;" edge="1" parent="1" target="DGaw78PKrGUKEOtXkO8Q-21">
          <mxGeometry width="50" height="50" relative="1" as="geometry">
            <mxPoint x="77" y="516" as="sourcePoint" />
            <mxPoint x="187" y="660" as="targetPoint" />
          </mxGeometry>
        </mxCell>
        <mxCell id="DGaw78PKrGUKEOtXkO8Q-23" value="개인일정파일" style="ellipse;whiteSpace=wrap;html=1;" vertex="1" parent="1">
          <mxGeometry x="320" y="840" width="60" height="40" as="geometry" />
        </mxCell>
        <mxCell id="DGaw78PKrGUKEOtXkO8Q-24" value="부서일정파일" style="ellipse;whiteSpace=wrap;html=1;" vertex="1" parent="1">
          <mxGeometry x="317.5" y="900" width="60" height="40" as="geometry" />
        </mxCell>
        <mxCell id="DGaw78PKrGUKEOtXkO8Q-26" value="" style="endArrow=none;html=1;rounded=0;exitX=1;exitY=0.5;exitDx=0;exitDy=0;entryX=0;entryY=0.5;entryDx=0;entryDy=0;" edge="1" parent="1" source="DGaw78PKrGUKEOtXkO8Q-21" target="DGaw78PKrGUKEOtXkO8Q-23">
          <mxGeometry width="50" height="50" relative="1" as="geometry">
            <mxPoint x="290" y="861" as="sourcePoint" />
            <mxPoint x="333" y="890" as="targetPoint" />
          </mxGeometry>
        </mxCell>
        <mxCell id="DGaw78PKrGUKEOtXkO8Q-27" value="" style="endArrow=none;html=1;rounded=0;exitX=0.769;exitY=0.923;exitDx=0;exitDy=0;entryX=0;entryY=0.5;entryDx=0;entryDy=0;exitPerimeter=0;" edge="1" parent="1" source="DGaw78PKrGUKEOtXkO8Q-21" target="DGaw78PKrGUKEOtXkO8Q-24">
          <mxGeometry width="50" height="50" relative="1" as="geometry">
            <mxPoint x="275" y="880" as="sourcePoint" />
            <mxPoint x="305" y="880" as="targetPoint" />
          </mxGeometry>
        </mxCell>
      </root>
    </mxGraphModel>
  </diagram>
</mxfile>
